<svg version="1.1" viewBox="0.0 0.0 384.0 384.0" fill="none" stroke="none" stroke-linecap="square" stroke-miterlimit="10" xmlns:xlink="http://www.w3.org/1999/xlink" xmlns="http://www.w3.org/2000/svg"><clipPath id="g2e2b9d76c40_1_134.0"><path d="m0 0l384.0 0l0 384.0l-384.0 0l0 -384.0z" clip-rule="nonzero"/></clipPath><g clip-path="url(#g2e2b9d76c40_1_134.0)"><path fill="#ffffff" d="m0 0l384.0 0l0 384.0l-384.0 0z" fill-rule="evenodd"/><path fill="#aeaeae" d="m234.19887 199.5664l38.960648 0l0 98.48819l-38.960648 0z" fill-rule="evenodd"/><path fill="#ffc000" d="m131.45068 213.00089l26.803146 0l0 80.75592l-26.803146 0z" fill-rule="evenodd"/><path fill="#92d050" d="m168.53911 168.33405l33.448822 0l0 125.41733l-33.448822 0z" fill-rule="evenodd"/><path fill="#000000" fill-opacity="0.0" d="m151.59076 215.33003l0 58.14174" fill-rule="evenodd"/><path stroke="#156082" stroke-width="2.0" stroke-miterlimit="800.0" stroke-linecap="butt" d="m151.59076 215.33003l0 58.14174" fill-rule="evenodd"/><path fill="#000000" fill-opacity="0.0" d="m145.02077 296.0786l7.244095 0" fill-rule="evenodd"/><path stroke="#156082" stroke-width="2.0" stroke-miterlimit="800.0" stroke-linecap="butt" d="m145.02077 296.0786l7.244095 0" fill-rule="evenodd"/><path fill="#000000" fill-opacity="0.0" d="m143.02162 169.88498l0 103.590546" fill-rule="evenodd"/><path stroke="#156082" stroke-width="2.0" stroke-miterlimit="800.0" stroke-linecap="butt" d="m143.02162 169.88498l0 103.590546" fill-rule="evenodd"/><path fill="#000000" fill-opacity="0.0" d="m143.4625 169.8849l48.53543 0" fill-rule="evenodd"/><path stroke="#156082" stroke-width="2.0" stroke-miterlimit="800.0" stroke-linecap="butt" d="m143.4625 169.8849l48.53543 0" fill-rule="evenodd"/><path fill="#000000" fill-opacity="0.0" d="m191.45084 169.8849l0 103.59056" fill-rule="evenodd"/><path stroke="#156082" stroke-width="2.0" stroke-miterlimit="800.0" stroke-linecap="butt" d="m191.45084 169.8849l0 103.59056" fill-rule="evenodd"/><path fill="#000000" fill-opacity="0.0" d="m191.31447 273.54373l-9.795288 0" fill-rule="evenodd"/><path stroke="#156082" stroke-width="2.0" stroke-miterlimit="800.0" stroke-linecap="butt" d="m191.31447 273.54373l-9.795288 0" fill-rule="evenodd"/><path fill="#000000" fill-opacity="0.0" d="m183.99927 273.4635l0 -76.25198" fill-rule="evenodd"/><path stroke="#156082" stroke-width="2.0" stroke-miterlimit="800.0" stroke-linecap="butt" d="m183.99927 273.4635l0 -76.25198" fill-rule="evenodd"/><path fill="#000000" fill-opacity="0.0" d="m183.99927 198.53018l41.543304 -37.32283" fill-rule="evenodd"/><path stroke="#156082" stroke-width="2.0" stroke-miterlimit="800.0" stroke-linecap="butt" d="m183.99927 198.53018l41.543304 -37.32283" fill-rule="evenodd"/><path fill="#000000" fill-opacity="0.0" d="m224.43982 161.78372l47.338593 32.755905" fill-rule="evenodd"/><path stroke="#156082" stroke-width="2.0" stroke-miterlimit="800.0" stroke-linecap="butt" d="m224.43982 161.78372l47.338593 32.755905" fill-rule="evenodd"/><path fill="#000000" fill-opacity="0.0" d="m272.30872 194.02452l0 100.50392" fill-rule="evenodd"/><path stroke="#156082" stroke-width="2.0" stroke-miterlimit="800.0" stroke-linecap="butt" d="m272.30872 194.02452l0 100.50392" fill-rule="evenodd"/><path fill="#000000" fill-opacity="0.0" d="m148.64014 296.0786l-43.779533 0" fill-rule="evenodd"/><path stroke="#156082" stroke-width="2.0" stroke-miterlimit="800.0" stroke-linecap="butt" d="m148.64014 296.0786l-43.779533 0" fill-rule="evenodd"/><path fill="#000000" fill-opacity="0.0" d="m105.5369 296.0786l0 -80.755905" fill-rule="evenodd"/><path stroke="#156082" stroke-width="2.0" stroke-miterlimit="800.0" stroke-linecap="butt" d="m105.5369 296.0786l0 -80.755905" fill-rule="evenodd"/><path fill="#000000" fill-opacity="0.0" d="m104.87021 215.33003l46.708664 0" fill-rule="evenodd"/><path stroke="#156082" stroke-width="2.0" stroke-miterlimit="800.0" stroke-linecap="butt" d="m104.87021 215.33003l46.708664 0" fill-rule="evenodd"/><path fill="#000000" fill-opacity="0.0" d="m151.59076 273.4635l-8.566925 0" fill-rule="evenodd"/><path stroke="#156082" stroke-width="2.0" stroke-miterlimit="800.0" stroke-linecap="butt" d="m151.59076 273.4635l-8.566925 0" fill-rule="evenodd"/><path fill="#000000" fill-opacity="0.0" d="m203.31871 82.41263l3.2440948 -39.181107l3.2440948 39.181107z" fill-rule="evenodd"/><path stroke="#156082" stroke-width="2.0" stroke-miterlimit="800.0" stroke-linecap="butt" d="m203.31871 82.41263l3.2440948 -39.181107l3.2440948 39.181107z" fill-rule="evenodd"/><path fill="#000000" fill-opacity="0.0" d="m271.77542 293.78656l-12.251984 0" fill-rule="evenodd"/><path stroke="#156082" stroke-width="2.0" stroke-miterlimit="800.0" stroke-linecap="butt" d="m271.77542 293.78656l-12.251984 0" fill-rule="evenodd"/><path fill="#000000" fill-opacity="0.0" d="m190.43571 275.4364l16.251968 -156.12598" fill-rule="evenodd"/><path stroke="#156082" stroke-width="2.0" stroke-miterlimit="800.0" stroke-linecap="butt" d="m190.43571 275.4364l16.251968 -156.12598" fill-rule="evenodd"/><path fill="#000000" fill-opacity="0.0" d="m207.92194 120.166565l16.503937 176.40945" fill-rule="evenodd"/><path stroke="#156082" stroke-width="2.0" stroke-miterlimit="800.0" stroke-linecap="butt" d="m207.92194 120.166565l16.503937 176.40945" fill-rule="evenodd"/><path fill="#a5a5a5" d="m225.06564 109.54664l-2.4409485 9.763779l-31.874008 0l-2.4409485 -9.763779z" fill-rule="evenodd"/><path stroke="#156082" stroke-width="2.0" stroke-miterlimit="800.0" stroke-linecap="butt" d="m225.06564 109.54664l-2.4409485 9.763779l-31.874008 0l-2.4409485 -9.763779z" fill-rule="evenodd"/><path fill="#ffc000" d="m230.348 97.37491l-2.4409485 9.763779l-42.456696 0l-2.4409332 -9.763779z" fill-rule="evenodd"/><path stroke="#156082" stroke-width="2.0" stroke-miterlimit="800.0" stroke-linecap="butt" d="m230.348 97.37491l-2.4409485 9.763779l-42.456696 0l-2.4409332 -9.763779z" fill-rule="evenodd"/><path fill="#8cd872" d="m188.13351 94.97884l2.4409485 -9.763779l31.874008 0l2.4409485 9.763779z" fill-rule="evenodd"/><path stroke="#156082" stroke-width="2.0" stroke-miterlimit="800.0" stroke-linecap="butt" d="m188.13351 94.97884l2.4409485 -9.763779l31.874008 0l2.4409485 9.763779z" fill-rule="evenodd"/><path fill="#000000" fill-opacity="0.0" d="m278.948 295.58594l-107.779526 -0.3779602" fill-rule="evenodd"/><path stroke="#156082" stroke-width="2.0" stroke-miterlimit="800.0" stroke-linecap="butt" d="m278.948 295.58594l-107.779526 -0.3779602" fill-rule="evenodd"/><path fill="#000000" fill-opacity="0.0" d="m170.83069 140.03018l1.8582611 156.06299" fill-rule="evenodd"/><path stroke="#156082" stroke-width="2.0" stroke-miterlimit="800.0" stroke-linecap="butt" d="m170.83069 140.03018l1.8582611 156.06299" fill-rule="evenodd"/><path fill="#000000" fill-opacity="0.0" d="m77.30596 296.32736l229.3858 0l0 44.440918l-229.3858 0z" fill-rule="evenodd"/><path fill="#000000" d="m127.09572 320.29858l2.71875 1.515625q-0.921875 3.46875 -3.703125 5.375q-2.765625 1.90625 -6.375 1.90625q-4.734375 0 -7.59375 -3.0625q-2.859375 -3.078125 -2.859375 -7.59375q0 -4.953125 2.875 -7.890625q2.875 -2.9375 7.5 -2.9375q4.09375 0 6.875 2.234375l0 -1.90625l2.6875 0l0 6.703125l-2.6875 0q-0.90625 -2.046875 -2.78125 -3.15625q-1.859375 -1.109375 -3.921875 -1.109375q-3.109375 0 -5.109375 2.25q-2.0 2.234375 -2.0 5.65625q0 3.53125 2.140625 5.765625q2.140625 2.21875 5.0625 2.21875q2.421875 0 4.390625 -1.546875q1.984375 -1.546875 2.78125 -4.421875zm7.36969 5.9375l0 -15.765625l-2.578125 0l0 -2.53125l5.421875 0l0 18.296875l2.21875 0l0 2.53125l-7.640625 0l0 -2.53125l2.578125 0zm22.201385 -4.0l-12.1875 0q0.265625 2.015625 1.578125 3.265625q1.328125 1.234375 3.375 1.234375q2.984375 0 4.71875 -2.40625l2.515625 1.109375q-1.234375 1.90625 -3.203125 2.828125q-1.953125 0.921875 -4.09375 0.921875q-3.3125 0 -5.671875 -2.078125q-2.359375 -2.078125 -2.359375 -5.59375q0 -3.328125 2.296875 -5.484375q2.296875 -2.15625 5.28125 -2.15625q2.90625 0 5.28125 2.109375q2.375 2.09375 2.46875 6.25zm-2.9375 -2.0625q-0.296875 -1.53125 -1.59375 -2.765625q-1.28125 -1.234375 -3.15625 -1.234375q-1.703125 0 -2.921875 1.125q-1.203125 1.109375 -1.46875 2.875l9.140625 0zm19.948456 6.0625l0 2.53125l-4.96875 0l0 -1.765625q-2.0625 2.0 -4.609375 2.0q-1.96875 0 -3.4375 -1.28125q-1.453125 -1.28125 -1.453125 -3.296875q0 -2.015625 1.546875 -3.34375q1.546875 -1.34375 3.734375 -1.34375q2.046875 0 3.9375 1.234375l0 -1.4375q0 -1.109375 -0.21875 -1.703125q-0.203125 -0.609375 -0.96875 -1.078125q-0.765625 -0.484375 -2.015625 -0.484375q-2.140625 0 -3.09375 1.703125l-2.71875 -0.71875q1.796875 -3.375 6.25 -3.375q1.625 0 2.8125 0.4375q1.203125 0.4375 1.78125 1.140625q0.578125 0.6875 0.78125 1.5q0.203125 0.8125 0.203125 2.578125l0 6.703125l2.4375 0zm-5.25 -2.859375q-1.84375 -1.4375 -3.71875 -1.4375q-1.1875 0 -1.984375 0.6875q-0.796875 0.6875 -0.796875 1.78125q0 1.015625 0.703125 1.71875q0.703125 0.6875 1.890625 0.6875q2.0625 0 3.90625 -1.75l0 -1.6875zm11.864914 -9.09375l0 1.75q2.734375 -1.984375 5.0 -1.984375q1.40625 0 2.3125 0.671875q0.921875 0.671875 1.203125 1.640625q0.296875 0.953125 0.296875 2.8125l0 7.0625l2.4375 0l0 2.53125l-5.28125 0l0 -9.46875q0 -1.65625 -0.5 -2.15625q-0.484375 -0.5 -1.203125 -0.5q-1.890625 0 -4.265625 1.84375l0 7.75l2.5 0l0 2.53125l-7.890625 0l0 -2.53125l2.546875 0l0 -9.421875l-2.546875 0l0 -2.53125l5.390625 0zm34.815628 3.46875l4.265625 0l0 2.546875l-2.203125 0q-0.8125 2.890625 -2.0625 4.453125l1.09375 1.40625l3.171875 0l0 2.609375l-4.75 0l-1.375 -1.828125q-2.703125 2.15625 -5.546875 2.15625q-3.2187347 0 -5.3437347 -2.0q-2.109375 -2.015625 -2.109375 -5.015625q0 -4.171875 4.75 -6.25q-1.421875 -1.8125 -1.421875 -3.640625q0 -2.0 1.515625 -3.28125q1.5312347 -1.296875 3.5468597 -1.296875q2.09375 0 3.53125 1.28125q1.453125 1.28125 1.453125 3.1875q0 1.65625 -1.015625 2.71875q-1.015625 1.0625 -3.359375 2.03125l4.234375 5.71875q1.140625 -1.984375 1.625 -4.796875zm-7.359375 -2.90625q1.796875 -0.75 2.453125 -1.40625q0.65625 -0.65625 0.65625 -1.453125q0 -0.734375 -0.5625 -1.328125q-0.546875 -0.59375 -1.59375 -0.59375q-0.953125 0 -1.578125 0.578125q-0.625 0.5625 -0.625 1.484375q0 0.796875 1.078125 2.453125l0.171875 0.265625zm-1.15625 2.90625q-3.2343597 1.4375 -3.2343597 4.1875q0 1.828125 1.359375 3.203125q1.3593597 1.359375 3.3124847 1.359375q1.984375 0 3.609375 -1.65625l-5.046875 -7.09375zm40.239044 2.546875l2.71875 1.515625q-0.921875 3.46875 -3.703125 5.375q-2.765625 1.90625 -6.375 1.90625q-4.734375 0 -7.59375 -3.0625q-2.859375 -3.078125 -2.859375 -7.59375q0 -4.953125 2.875 -7.890625q2.875 -2.9375 7.5 -2.9375q4.09375 0 6.875 2.234375l0 -1.90625l2.6875 0l0 6.703125l-2.6875 0q-0.90625 -2.046875 -2.78125 -3.15625q-1.859375 -1.109375 -3.921875 -1.109375q-3.109375 0 -5.109375 2.25q-2.0 2.234375 -2.0 5.65625q0 3.53125 2.140625 5.765625q2.140625 2.21875 5.0625 2.21875q2.421875 0 4.390625 -1.546875q1.984375 -1.546875 2.78125 -4.421875zm5.354065 1.21875q0 -3.34375 2.203125 -5.484375q2.2187653 -2.15625 5.4062653 -2.15625q3.140625 0 5.375 2.125q2.25 2.109375 2.25 5.515625q0 3.421875 -2.234375 5.546875q-2.234375 2.125 -5.390625 2.125q-3.234375 0 -5.4218903 -2.15625q-2.1875 -2.15625 -2.1875 -5.515625zm3.0 0q0 2.140625 1.3437653 3.515625q1.34375 1.375 3.265625 1.375q1.96875 0 3.28125 -1.390625q1.328125 -1.390625 1.328125 -3.5q0 -2.125 -1.34375 -3.5q-1.34375 -1.375 -3.265625 -1.375q-2.0 0 -3.3125 1.40625q-1.2968903 1.40625 -1.2968903 3.46875zm14.514877 7.25l0 -3.6875l3.671875 0l0 3.6875l-3.671875 0z" fill-rule="nonzero"/></g></svg>