<svg version="1.1" viewBox="0.0 0.0 384.0 384.0" fill="none" stroke="none" stroke-linecap="square" stroke-miterlimit="10" xmlns:xlink="http://www.w3.org/1999/xlink" xmlns="http://www.w3.org/2000/svg"><clipPath id="g2e2b9d76c40_1_134.0"><path d="m0 0l384.0 0l0 384.0l-384.0 0l0 -384.0z" clip-rule="nonzero"/></clipPath><g clip-path="url(#g2e2b9d76c40_1_134.0)"><path fill="#ffffff" d="m0 0l384.0 0l0 384.0l-384.0 0z" fill-rule="evenodd"/><path fill="#78206e" d="m127.08556 154.36362l0 0c0 -40.52117 27.109688 -73.37007 60.551186 -73.37007c33.441483 0 60.551178 32.8489 60.551178 73.37007l-30.275589 0c0 -23.80043 -13.55484 -43.094482 -30.275589 -43.094482c-16.720749 0 -30.275589 19.294052 -30.275589 43.094482z" fill-rule="evenodd"/><path fill="#501549" d="m191.99461 229.63638l0 0c0 -40.52118 27.109695 -73.37009 60.551193 -73.37009c33.441498 0 60.551178 32.848907 60.551178 73.37009l-30.275604 0c0 -23.80043 -13.55484 -43.094498 -30.275574 -43.094498c-16.720749 0 -30.275604 19.294067 -30.275604 43.094498z" fill-rule="evenodd"/><path fill="#d86ccc" d="m70.909775 230.67134c-0.30658722 -26.333282 11.058075 -50.845657 29.777763 -64.22751c18.719688 -13.381851 41.922462 -13.580154 60.796074 -0.51960754c18.873611 13.060562 30.522507 37.37625 30.522507 63.71216l-30.275589 0c0 -15.457825 -5.8164062 -29.731613 -15.242874 -37.406876c-9.426468 -7.6752625 -21.018898 -7.576187 -30.379936 0.25964355c-9.361038 7.8358307 -15.0566025 22.208008 -14.926193 37.66472z" fill-rule="evenodd"/><path fill="#000000" fill-opacity="0.0" d="m97.358475 225.89276l189.25984 0l0 46.04724l-189.25984 0z" fill-rule="evenodd"/><path fill="#78206e" d="m125.48058 237.87839l3.6718826 0l0 7.65625l-3.6718826 0q-1.5625 -4.125 -5.421875 -4.125q-3.1875 0 -4.828125 2.171875q-1.625 2.171875 -1.625 5.203125q0 3.171875 1.71875 5.140625q1.734375 1.953125 4.40625 1.953125q2.1875 0 3.828125 -1.484375q1.640625 -1.484375 2.21875 -4.125l4.2812576 2.046875q-2.4375076 7.5625 -10.734383 7.5625q-5.859375 0 -8.84375 -3.15625q-2.96875 -3.15625 -2.96875 -7.984375q0 -3.4375 1.546875 -6.015625q1.546875 -2.578125 4.15625 -3.875q2.625 -1.3125 5.75 -1.3125q3.890625 0 6.515625 2.03125l0 -1.6875zm6.6093826 21.734375l0 -3.484375l2.375 0l0 -14.765625l-2.375 0l0 -3.484375l7.203125 0l0 18.25l2.171875 0l0 3.484375l-9.375 0zm23.484375 -4.5625l3.75 1.203125q-2.359375 3.703125 -7.375 3.703125q-4.046875 0 -6.265625 -2.109375q-2.21875 -2.109375 -2.21875 -5.546875q0 -3.5 2.3125 -5.84375q2.3125 -2.34375 5.890625 -2.34375q3.328125 0 5.578125 2.234375q2.265625 2.234375 2.265625 6.703125l-11.265625 0q0.109375 2.0625 1.296875 2.921875q1.203125 0.859375 2.53125 0.859375q1.734375 0 3.5 -1.78125zm-0.921875 -4.6875q-0.140625 -1.328125 -1.015625 -2.1875q-0.875 -0.859375 -2.21875 -0.859375q-2.65625 0 -3.09375 3.046875l6.328125 0zm24.140625 5.765625l0 3.484375l-7.265625 0l0 -1.1875q-1.953125 1.40625 -4.125 1.40625q-2.234375 0 -3.875 -1.28125q-1.640625 -1.296875 -1.640625 -3.4375q0 -2.171875 1.71875 -3.640625q1.71875 -1.46875 4.4375 -1.46875q1.515625 0 3.484375 0.765625l0 -0.921875q0 -1.15625 -0.78125 -1.890625q-0.78125 -0.75 -2.09375 -0.75q-1.625 0 -2.78125 1.1875l-3.890625 -0.703125q1.6875 -3.578125 7.328125 -3.578125q2.359375 0 3.859375 0.578125q1.5 0.5625 2.140625 1.46875q0.640625 0.90625 0.84375 1.6875q0.203125 0.78125 0.203125 2.765625l0 5.515625l2.4375 0zm-7.265625 -2.109375q-1.75 -1.09375 -2.796875 -1.09375q-0.875 0 -1.53125 0.515625q-0.65625 0.5 -0.65625 1.375q0 0.8125 0.546875 1.421875q0.546875 0.59375 1.40625 0.59375q1.34375 0 3.03125 -1.578125l0 -1.234375zm8.859375 -6.03125l0 -3.5l7.140625 0l0 1.40625q2.1875 -1.640625 4.4375 -1.640625q4.578125 0 4.578125 5.84375l0 6.03125l2.28125 0l0 3.484375l-7.109375 0l0 -9.15625q0 -1.234375 -0.34375 -1.6875q-0.328125 -0.453125 -1.09375 -0.453125q-1.34375 0 -2.75 0.984375l0 6.828125l2.328125 0l0 3.484375l-9.46875 0l0 -3.484375l2.3125 0l0 -8.140625l-2.3125 0zm19.734375 11.625l0 -3.671875l2.8125 0l0 -14.390625l-2.8125 0l0 -3.671875l10.890625 0l4.78125 12.75l4.796875 -12.75l11.10936 0l0 3.671875l-2.8125 0l0 14.390625l2.8125 0l0 3.671875l-10.937485 0l0 -3.671875l2.625 0l0 -14.390625l-0.515625 0l-6.734375 18.0625l-2.34375 0l-6.8125 -18.0625l-0.515625 0l0 14.390625l2.84375 0l0 3.671875l-9.1875 0zm50.67186 -3.484375l0 3.484375l-7.265625 0l0 -1.1875q-1.953125 1.40625 -4.125 1.40625q-2.234375 0 -3.875 -1.28125q-1.640625 -1.296875 -1.640625 -3.4375q0 -2.171875 1.71875 -3.640625q1.71875 -1.46875 4.4375 -1.46875q1.515625 0 3.484375 0.765625l0 -0.921875q0 -1.15625 -0.78125 -1.890625q-0.78125 -0.75 -2.09375 -0.75q-1.625 0 -2.78125 1.1875l-3.890625 -0.703125q1.6875 -3.578125 7.328125 -3.578125q2.359375 0 3.859375 0.578125q1.5 0.5625 2.140625 1.46875q0.640625 0.90625 0.84375 1.6875q0.203125 0.78125 0.203125 2.765625l0 5.515625l2.4375 0zm-7.265625 -2.109375q-1.75 -1.09375 -2.796875 -1.09375q-0.875 0 -1.53125 0.515625q-0.65625 0.5 -0.65625 1.375q0 0.8125 0.546875 1.421875q0.546875 0.59375 1.40625 0.59375q1.34375 0 3.03125 -1.578125l0 -1.234375zm19.218765 2.109375l0 3.484375l-10.64064 0l0 -3.484375l2.796875 0l0 -8.140625l-2.625 0l0 -3.5l7.0468903 0l0 3.84375q0.40625 -1.65625 1.84375 -2.859375q1.453125 -1.21875 3.421875 -1.21875q0.328125 0 0.78125 0.015625l0 4.5625q-1.828125 0 -2.984375 0.40625q-1.15625 0.40625 -1.90625 1.78125q-0.75 1.375 -0.75 3.25l0 1.859375l3.015625 0zm4.890625 -8.140625l0 -3.5l1.921875 0l0 -2.375l4.828125 -3.46875l0 5.84375l2.78125 0l0 3.5l-2.78125 0l0 6.546875q0 0.890625 0.21875 1.203125q0.234375 0.296875 1.046875 0.296875q0.671875 0 1.515625 -0.3125l0 3.34375q-1.859375 0.765625 -3.640625 0.765625q-3.96875 0 -3.96875 -3.9375l0 -7.90625l-1.921875 0z" fill-rule="nonzero"/></g></svg>