<svg version="1.1" viewBox="0.0 0.0 384.0 384.0" fill="none" stroke="none" stroke-linecap="square" stroke-miterlimit="10" xmlns:xlink="http://www.w3.org/1999/xlink" xmlns="http://www.w3.org/2000/svg"><clipPath id="g2e2b9d76c40_1_134.0"><path d="m0 0l384.0 0l0 384.0l-384.0 0l0 -384.0z" clip-rule="nonzero"/></clipPath><g clip-path="url(#g2e2b9d76c40_1_134.0)"><path fill="#ffffff" d="m0 0l384.0 0l0 384.0l-384.0 0z" fill-rule="evenodd"/><path fill="#000000" fill-opacity="0.0" d="m152.1349 213.03465l0 58.14174" fill-rule="evenodd"/><path stroke="#156082" stroke-width="2.0" stroke-miterlimit="800.0" stroke-linecap="butt" d="m152.1349 213.03465l0 58.14174" fill-rule="evenodd"/><path fill="#000000" fill-opacity="0.0" d="m145.56491 293.78323l7.244095 0" fill-rule="evenodd"/><path stroke="#156082" stroke-width="2.0" stroke-miterlimit="800.0" stroke-linecap="butt" d="m145.56491 293.78323l7.244095 0" fill-rule="evenodd"/><path fill="#000000" fill-opacity="0.0" d="m143.56578 167.5896l0 103.590546" fill-rule="evenodd"/><path stroke="#93dcf8" stroke-width="2.0" stroke-miterlimit="800.0" stroke-linecap="butt" d="m143.56578 167.5896l0 103.590546" fill-rule="evenodd"/><path fill="#000000" fill-opacity="0.0" d="m144.00664 167.58952l48.53543 0" fill-rule="evenodd"/><path stroke="#93dcf8" stroke-width="2.0" stroke-miterlimit="800.0" stroke-linecap="butt" d="m144.00664 167.58952l48.53543 0" fill-rule="evenodd"/><path fill="#000000" fill-opacity="0.0" d="m191.99498 167.58952l0 103.59056" fill-rule="evenodd"/><path stroke="#93dcf8" stroke-width="2.0" stroke-miterlimit="800.0" stroke-linecap="butt" d="m191.99498 167.58952l0 103.59056" fill-rule="evenodd"/><path fill="#000000" fill-opacity="0.0" d="m192.53696 271.52582l-9.795273 0" fill-rule="evenodd"/><path stroke="#d86ccc" stroke-width="2.0" stroke-miterlimit="800.0" stroke-linecap="butt" d="m192.53696 271.52582l-9.795273 0" fill-rule="evenodd"/><path fill="#000000" fill-opacity="0.0" d="m184.54341 271.16812l0 -76.25198" fill-rule="evenodd"/><path stroke="#d86ccc" stroke-width="2.0" stroke-miterlimit="800.0" stroke-linecap="butt" d="m184.54341 271.16812l0 -76.25198" fill-rule="evenodd"/><path fill="#000000" fill-opacity="0.0" d="m184.54341 196.2348l41.543304 -37.32283" fill-rule="evenodd"/><path stroke="#d86ccc" stroke-width="2.0" stroke-miterlimit="800.0" stroke-linecap="butt" d="m184.54341 196.2348l41.543304 -37.32283" fill-rule="evenodd"/><path fill="#000000" fill-opacity="0.0" d="m225.51727 158.36653l48.787384 38.551178" fill-rule="evenodd"/><path stroke="#d86ccc" stroke-width="2.0" stroke-miterlimit="800.0" stroke-linecap="butt" d="m225.51727 158.36653l48.787384 38.551178" fill-rule="evenodd"/><path fill="#000000" fill-opacity="0.0" d="m274.93774 196.90756l0 101.03937" fill-rule="evenodd"/><path stroke="#d86ccc" stroke-width="2.0" stroke-miterlimit="800.0" stroke-linecap="butt" d="m274.93774 196.90756l0 101.03937" fill-rule="evenodd"/><path fill="#000000" fill-opacity="0.0" d="m149.18428 293.78323l-43.779533 0" fill-rule="evenodd"/><path stroke="#156082" stroke-width="2.0" stroke-miterlimit="800.0" stroke-linecap="butt" d="m149.18428 293.78323l-43.779533 0" fill-rule="evenodd"/><path fill="#000000" fill-opacity="0.0" d="m106.08105 293.78323l0 -80.755905" fill-rule="evenodd"/><path stroke="#156082" stroke-width="2.0" stroke-miterlimit="800.0" stroke-linecap="butt" d="m106.08105 293.78323l0 -80.755905" fill-rule="evenodd"/><path fill="#000000" fill-opacity="0.0" d="m105.41436 213.03465l46.708656 0" fill-rule="evenodd"/><path stroke="#156082" stroke-width="2.0" stroke-miterlimit="800.0" stroke-linecap="butt" d="m105.41436 213.03465l46.708656 0" fill-rule="evenodd"/><path fill="#000000" fill-opacity="0.0" d="m152.1349 271.16812l-8.566925 0" fill-rule="evenodd"/><path stroke="#156082" stroke-width="2.0" stroke-miterlimit="800.0" stroke-linecap="butt" d="m152.1349 271.16812l-8.566925 0" fill-rule="evenodd"/><path fill="#000000" fill-opacity="0.0" d="m197.39436 87.92543l3.2440948 -39.1811l3.2440948 39.1811z" fill-rule="evenodd"/><path stroke="#8cd872" stroke-width="2.0" stroke-miterlimit="800.0" stroke-linecap="butt" d="m197.39436 87.92543l3.2440948 -39.1811l3.2440948 39.1811z" fill-rule="evenodd"/><path fill="#000000" fill-opacity="0.0" d="m192.39774 268.53574l9.606308 -143.24408" fill-rule="evenodd"/><path stroke="#8cd872" stroke-width="2.0" stroke-miterlimit="800.0" stroke-linecap="butt" d="m192.39774 268.53574l9.606308 -143.24408" fill-rule="evenodd"/><path fill="#000000" fill-opacity="0.0" d="m201.99759 125.67937l18.425186 170.26772" fill-rule="evenodd"/><path stroke="#8cd872" stroke-width="2.0" stroke-miterlimit="800.0" stroke-linecap="butt" d="m201.99759 125.67937l18.425186 170.26772" fill-rule="evenodd"/><path fill="#8cd872" d="m219.14128 115.05945l-2.4409332 9.763779l-31.874023 0l-2.4409485 -9.763779z" fill-rule="evenodd"/><path stroke="#8cd872" stroke-width="2.0" stroke-miterlimit="800.0" stroke-linecap="butt" d="m219.14128 115.05945l-2.4409332 9.763779l-31.874023 0l-2.4409485 -9.763779z" fill-rule="evenodd"/><path fill="#8cd872" d="m224.42365 102.88772l-2.4409485 9.763779l-42.45668 0l-2.4409485 -9.763779z" fill-rule="evenodd"/><path stroke="#8cd872" stroke-width="2.0" stroke-miterlimit="800.0" stroke-linecap="butt" d="m224.42365 102.88772l-2.4409485 9.763779l-42.45668 0l-2.4409485 -9.763779z" fill-rule="evenodd"/><path fill="#8cd872" d="m182.20917 100.49165l2.4409332 -9.763779l31.874023 0l2.4409485 9.763779z" fill-rule="evenodd"/><path stroke="#8cd872" stroke-width="2.0" stroke-miterlimit="800.0" stroke-linecap="butt" d="m182.20917 100.49165l2.4409332 -9.763779l31.874023 0l2.4409485 9.763779z" fill-rule="evenodd"/><path fill="#000000" fill-opacity="0.0" d="m274.3046 295.61566l-107.779526 -0.3779602" fill-rule="evenodd"/><path stroke="#e97132" stroke-width="2.0" stroke-miterlimit="800.0" stroke-linecap="butt" d="m274.3046 295.61566l-107.779526 -0.3779602" fill-rule="evenodd"/><path fill="#000000" fill-opacity="0.0" d="m168.85246 139.7348l-0.75590515 154.55118" fill-rule="evenodd"/><path stroke="#e97132" stroke-width="2.0" stroke-miterlimit="800.0" stroke-linecap="butt" d="m168.85246 139.7348l-0.75590515 154.55118" fill-rule="evenodd"/><path fill="#000000" fill-opacity="0.0" d="m99.02247 289.20944l185.95276 0l0 46.04724l-185.95276 0z" fill-rule="evenodd"/><path fill="#78206e" d="m134.05353 314.0857l2.828125 1.578125q-0.953125 3.625 -3.859375 5.625q-2.890625 1.984375 -6.6562424 1.984375q-4.9375 0 -7.921875 -3.203125q-2.984375 -3.203125 -2.984375 -7.921875q0 -5.171875 3.0 -8.234375q3.0 -3.0625 7.828125 -3.0625q4.2656174 0 7.1718674 2.328125l0 -1.984375l2.8125 0l0 6.984375l-2.8125 0q-0.9375 -2.125 -2.890625 -3.28125q-1.953125 -1.171875 -4.1093674 -1.171875q-3.25 0 -5.34375 2.34375q-2.078125 2.34375 -2.078125 5.921875q0 3.671875 2.234375 6.0q2.234375 2.328125 5.296875 2.328125q2.5156174 0 4.5781174 -1.609375q2.0625 -1.625 2.90625 -4.625zm7.6875 6.203125l0 -16.453125l-2.6875 0l0 -2.640625l5.65625 0l0 19.09375l2.3125 0l0 2.640625l-7.96875 0l0 -2.640625l2.6875 0zm23.171875 -4.171875l-12.71875 0q0.28125 2.09375 1.65625 3.390625q1.375 1.296875 3.515625 1.296875q3.109375 0 4.921875 -2.5l2.625 1.15625q-1.28125 1.984375 -3.328125 2.953125q-2.046875 0.953125 -4.28125 0.953125q-3.46875 0 -5.9375 -2.15625q-2.453125 -2.171875 -2.453125 -5.84375q0 -3.484375 2.390625 -5.734375q2.40625 -2.25 5.515625 -2.25q3.046875 0 5.515625 2.203125q2.484375 2.1875 2.578125 6.53125zm-3.0625 -2.15625q-0.3125 -1.59375 -1.65625 -2.875q-1.34375 -1.296875 -3.296875 -1.296875q-1.78125 0 -3.046875 1.171875q-1.265625 1.15625 -1.546875 3.0l9.546875 0zm20.828125 6.328125l0 2.640625l-5.1875 0l0 -1.84375q-2.15625 2.09375 -4.8125 2.09375q-2.0625 0 -3.59375 -1.34375q-1.515625 -1.34375 -1.515625 -3.4375q0 -2.109375 1.609375 -3.5q1.625 -1.390625 3.90625 -1.390625q2.125 0 4.109375 1.28125l0 -1.5q0 -1.15625 -0.21875 -1.78125q-0.21875 -0.625 -1.03125 -1.125q-0.796875 -0.5 -2.09375 -0.5q-2.234375 0 -3.234375 1.78125l-2.84375 -0.75q1.890625 -3.53125 6.53125 -3.53125q1.703125 0 2.9375 0.46875q1.25 0.453125 1.859375 1.1875q0.609375 0.71875 0.8125 1.5625q0.21875 0.84375 0.21875 2.6875l0 7.0l2.546875 0zm-5.484375 -2.984375q-1.921875 -1.5 -3.890625 -1.5q-1.234375 0 -2.0625 0.71875q-0.828125 0.71875 -0.828125 1.859375q0 1.0625 0.71875 1.78125q0.734375 0.71875 1.984375 0.71875q2.15625 0 4.078125 -1.8125l0 -1.765625zm12.375 -9.5l0 1.828125q2.859375 -2.0625 5.21875 -2.0625q1.46875 0 2.421875 0.703125q0.96875 0.6875 1.265625 1.703125q0.296875 1.0 0.296875 2.9375l0 7.375l2.546875 0l0 2.640625l-5.515625 0l0 -9.890625q0 -1.71875 -0.515625 -2.234375q-0.515625 -0.53125 -1.265625 -0.53125q-1.96875 0 -4.453125 1.921875l0 8.09375l2.609375 0l0 2.640625l-8.234375 0l0 -2.640625l2.65625 0l0 -9.84375l-2.65625 0l0 -2.640625l5.625 0zm15.25 12.40625l0 -16.296875l-2.609375 0l0 -2.71875l7.4375 0l5.71875 14.890625l5.78125 -14.890625l7.515625 0l0 2.71875l-2.625 0l0 16.296875l2.625 0l0 2.71875l-8.1875 0l0 -2.71875l2.59375 0l0 -16.296875l-7.5 19.234375l-0.640625 0l-7.421875 -19.234375l0 16.296875l2.390625 0l0 2.71875l-7.6875 0l0 -2.71875l2.609375 0zm41.1875 0.078125l0 2.640625l-5.1875 0l0 -1.84375q-2.15625 2.09375 -4.8125 2.09375q-2.0625 0 -3.59375 -1.34375q-1.515625 -1.34375 -1.515625 -3.4375q0 -2.109375 1.609375 -3.5q1.625 -1.390625 3.90625 -1.390625q2.125 0 4.109375 1.28125l0 -1.5q0 -1.15625 -0.21875 -1.78125q-0.21875 -0.625 -1.03125 -1.125q-0.796875 -0.5 -2.09375 -0.5q-2.234375 0 -3.234375 1.78125l-2.84375 -0.75q1.890625 -3.53125 6.53125 -3.53125q1.703125 0 2.9375 0.46875q1.25 0.453125 1.859375 1.1875q0.609375 0.71875 0.8125 1.5625q0.21875 0.84375 0.21875 2.6875l0 7.0l2.546875 0zm-5.484375 -2.984375q-1.921875 -1.5 -3.890625 -1.5q-1.234375 0 -2.0625 0.71875q-0.828125 0.71875 -0.828125 1.859375q0 1.0625 0.71875 1.78125q0.734375 0.71875 1.984375 0.71875q2.15625 0 4.078125 -1.8125l0 -1.765625zm9.640625 2.984375l0 -9.84375l-3.046875 0l0 -2.640625l5.421875 0l0 3.40625q0.5 -1.328125 1.390625 -2.203125q0.890625 -0.875 1.875 -1.15625q1.0 -0.28125 2.71875 -0.28125l0.78125 0l0 3.0l-0.59375 0q-2.265625 0 -3.390625 0.453125q-1.109375 0.453125 -1.65625 1.65625q-0.53125 1.1875 -0.53125 4.28125l0 3.328125l3.296875 0l0 2.640625l-9.3125 0l0 -2.640625l3.046875 0zm11.046875 -9.84375l0 -2.640625l1.96875 0l0 -2.328125l2.96875 -2.71875l0 5.046875l2.796875 0l0 2.640625l-2.796875 0l0 7.34375q0 1.765625 0.1875 2.1875q0.203125 0.40625 0.984375 0.40625q0.828125 0 1.625 -0.3125l0 2.703125q-1.140625 0.40625 -2.28125 0.40625q-1.359375 0 -2.203125 -0.59375q-0.84375 -0.609375 -1.0625 -1.515625q-0.21875 -0.90625 -0.21875 -3.125l0 -7.5l-1.96875 0z" fill-rule="nonzero"/></g></svg>